<svg width="27" height="26" viewBox="0 0 27 26" fill="none" xmlns="http://www.w3.org/2000/svg">
<path d="M25.7422 19.9262C26.667 17.5 25.667 14.5 24.167 13.5L15.167 17.5L14.667 23C17.667 26 21.1592 24.6634 22.8692 23.5165C22.9444 23.4668 23.0348 23.4465 23.1237 23.4593C23.2126 23.4722 23.2938 23.5173 23.3522 23.5863C24.0417 24.1534 24.8821 24.5006 25.7669 24.5836C26.4863 24.6684 26.575 24.2196 25.964 23.8007C25.6555 23.583 25.3978 23.2997 25.2089 22.9707C25.0199 22.6417 24.9042 22.2748 24.87 21.8959C24.8613 21.783 24.8908 21.6704 24.9538 21.5768C25.2982 21.0705 25.5641 20.5139 25.7422 19.9262Z" fill="#5F5F60" stroke="#0F1115" stroke-width="0.5" stroke-miterlimit="10"/>
<path d="M24.0053 8.4334C22.2827 2.69581 15.8229 -0.35456 9.66617 1.58218C3.50943 3.51892 -0.0474457 9.72456 1.68314 15.446C1.97142 16.397 2.40173 17.2978 2.95915 18.1171C3.061 18.2687 3.10881 18.4508 3.09473 18.6336C3.03927 19.2469 2.85209 19.8405 2.54628 20.3729C2.24047 20.9054 1.82341 21.3638 1.32426 21.7162C0.335357 22.3941 0.478908 23.1204 1.64327 22.9832C3.07511 22.8488 4.43524 22.2871 5.55104 21.3692C5.64553 21.2576 5.77696 21.1845 5.92078 21.1637C6.0646 21.1429 6.21098 21.1758 6.3326 21.2562C9.09994 23.1123 12.4096 23.4189 16.0622 22.265C22.187 20.3605 25.7598 14.1549 24.0053 8.4334Z" fill="#5F5F60" stroke="#0F1115" stroke-width="0.5" stroke-miterlimit="10"/>
</svg>
